<mxfile host="app.diagrams.net" agent="Mozilla/5.0 (Windows NT 10.0; Win64; x64) AppleWebKit/537.36 (KHTML, like Gecko) Chrome/131.0.0.0 Safari/537.36" version="24.9.2">
  <diagram name="Page-1" id="0F6fi1nZjLuEXQu72_Sx">
    <mxGraphModel dx="985" dy="392" grid="1" gridSize="10" guides="1" tooltips="1" connect="1" arrows="1" fold="1" page="1" pageScale="1" pageWidth="1100" pageHeight="850" math="0" shadow="0">
      <root>
        <mxCell id="0" />
        <mxCell id="1" parent="0" />
        <mxCell id="apQnh0DDiQVyJaAQIJS3-1" value="User" style="whiteSpace=wrap;html=1;align=center;" parent="1" vertex="1">
          <mxGeometry x="230" y="160" width="100" height="40" as="geometry" />
        </mxCell>
        <mxCell id="apQnh0DDiQVyJaAQIJS3-2" value="nama" style="ellipse;whiteSpace=wrap;html=1;align=center;" parent="1" vertex="1">
          <mxGeometry x="100" y="80" width="100" height="40" as="geometry" />
        </mxCell>
        <mxCell id="apQnh0DDiQVyJaAQIJS3-3" value="tanggal lahir" style="ellipse;whiteSpace=wrap;html=1;align=center;" parent="1" vertex="1">
          <mxGeometry x="210" y="50" width="100" height="40" as="geometry" />
        </mxCell>
        <mxCell id="apQnh0DDiQVyJaAQIJS3-5" value="id user" style="ellipse;whiteSpace=wrap;html=1;align=center;fontStyle=4;" parent="1" vertex="1">
          <mxGeometry x="60" y="140" width="100" height="40" as="geometry" />
        </mxCell>
        <mxCell id="apQnh0DDiQVyJaAQIJS3-6" value="" style="endArrow=none;html=1;rounded=0;exitX=0.5;exitY=1;exitDx=0;exitDy=0;entryX=0.62;entryY=-0.067;entryDx=0;entryDy=0;entryPerimeter=0;" parent="1" source="apQnh0DDiQVyJaAQIJS3-3" target="apQnh0DDiQVyJaAQIJS3-1" edge="1">
          <mxGeometry relative="1" as="geometry">
            <mxPoint x="280" y="159.5" as="sourcePoint" />
            <mxPoint x="440" y="159.5" as="targetPoint" />
          </mxGeometry>
        </mxCell>
        <mxCell id="apQnh0DDiQVyJaAQIJS3-7" value="" style="endArrow=none;html=1;rounded=0;" parent="1" target="apQnh0DDiQVyJaAQIJS3-1" edge="1">
          <mxGeometry relative="1" as="geometry">
            <mxPoint x="160" y="160" as="sourcePoint" />
            <mxPoint x="320" y="160" as="targetPoint" />
          </mxGeometry>
        </mxCell>
        <mxCell id="apQnh0DDiQVyJaAQIJS3-8" value="" style="endArrow=none;html=1;rounded=0;entryX=0.25;entryY=0;entryDx=0;entryDy=0;exitX=0.973;exitY=0.7;exitDx=0;exitDy=0;exitPerimeter=0;" parent="1" source="apQnh0DDiQVyJaAQIJS3-2" target="apQnh0DDiQVyJaAQIJS3-1" edge="1">
          <mxGeometry relative="1" as="geometry">
            <mxPoint x="200" y="110" as="sourcePoint" />
            <mxPoint x="360" y="110" as="targetPoint" />
          </mxGeometry>
        </mxCell>
        <mxCell id="apQnh0DDiQVyJaAQIJS3-9" value="mendaftar" style="shape=rhombus;perimeter=rhombusPerimeter;whiteSpace=wrap;html=1;align=center;" parent="1" vertex="1">
          <mxGeometry x="480" y="150" width="120" height="60" as="geometry" />
        </mxCell>
        <mxCell id="apQnh0DDiQVyJaAQIJS3-10" value="" style="endArrow=none;html=1;rounded=0;entryX=0;entryY=0.5;entryDx=0;entryDy=0;" parent="1" source="apQnh0DDiQVyJaAQIJS3-11" target="apQnh0DDiQVyJaAQIJS3-1" edge="1">
          <mxGeometry relative="1" as="geometry">
            <mxPoint x="100" y="230" as="sourcePoint" />
            <mxPoint x="240" y="190" as="targetPoint" />
          </mxGeometry>
        </mxCell>
        <mxCell id="apQnh0DDiQVyJaAQIJS3-12" value="" style="endArrow=none;html=1;rounded=0;entryX=0;entryY=0.5;entryDx=0;entryDy=0;" parent="1" target="apQnh0DDiQVyJaAQIJS3-11" edge="1">
          <mxGeometry relative="1" as="geometry">
            <mxPoint x="100" y="230" as="sourcePoint" />
            <mxPoint x="230" y="180" as="targetPoint" />
          </mxGeometry>
        </mxCell>
        <mxCell id="apQnh0DDiQVyJaAQIJS3-11" value="no handphone" style="ellipse;whiteSpace=wrap;html=1;align=center;fontStyle=4;" parent="1" vertex="1">
          <mxGeometry x="60" y="200" width="100" height="40" as="geometry" />
        </mxCell>
        <mxCell id="apQnh0DDiQVyJaAQIJS3-14" value="email" style="ellipse;whiteSpace=wrap;html=1;align=center;fontStyle=4;" parent="1" vertex="1">
          <mxGeometry x="100" y="250" width="100" height="40" as="geometry" />
        </mxCell>
        <mxCell id="apQnh0DDiQVyJaAQIJS3-16" value="" style="endArrow=none;html=1;rounded=0;exitX=1;exitY=0;exitDx=0;exitDy=0;" parent="1" source="apQnh0DDiQVyJaAQIJS3-14" target="apQnh0DDiQVyJaAQIJS3-1" edge="1">
          <mxGeometry relative="1" as="geometry">
            <mxPoint x="480" y="280" as="sourcePoint" />
            <mxPoint x="640" y="280" as="targetPoint" />
          </mxGeometry>
        </mxCell>
        <mxCell id="apQnh0DDiQVyJaAQIJS3-17" value="" style="endArrow=none;html=1;rounded=0;exitX=1;exitY=0.5;exitDx=0;exitDy=0;" parent="1" source="apQnh0DDiQVyJaAQIJS3-1" target="apQnh0DDiQVyJaAQIJS3-9" edge="1">
          <mxGeometry relative="1" as="geometry">
            <mxPoint x="480" y="170" as="sourcePoint" />
            <mxPoint x="640" y="170" as="targetPoint" />
          </mxGeometry>
        </mxCell>
        <mxCell id="apQnh0DDiQVyJaAQIJS3-18" value="" style="endArrow=none;html=1;rounded=0;exitX=0;exitY=0;exitDx=0;exitDy=0;" parent="1" source="apQnh0DDiQVyJaAQIJS3-9" target="apQnh0DDiQVyJaAQIJS3-19" edge="1">
          <mxGeometry relative="1" as="geometry">
            <mxPoint x="490" y="170" as="sourcePoint" />
            <mxPoint x="450" y="110" as="targetPoint" />
          </mxGeometry>
        </mxCell>
        <mxCell id="apQnh0DDiQVyJaAQIJS3-19" value="nama" style="ellipse;whiteSpace=wrap;html=1;align=center;" parent="1" vertex="1">
          <mxGeometry x="370" y="90" width="100" height="40" as="geometry" />
        </mxCell>
        <mxCell id="apQnh0DDiQVyJaAQIJS3-21" value="no hp" style="ellipse;whiteSpace=wrap;html=1;align=center;fontStyle=4;" parent="1" vertex="1">
          <mxGeometry x="500" y="40" width="100" height="40" as="geometry" />
        </mxCell>
        <mxCell id="apQnh0DDiQVyJaAQIJS3-22" value="" style="endArrow=none;html=1;rounded=0;exitX=0.5;exitY=0;exitDx=0;exitDy=0;" parent="1" source="apQnh0DDiQVyJaAQIJS3-9" target="apQnh0DDiQVyJaAQIJS3-21" edge="1">
          <mxGeometry relative="1" as="geometry">
            <mxPoint x="480" y="230" as="sourcePoint" />
            <mxPoint x="640" y="230" as="targetPoint" />
          </mxGeometry>
        </mxCell>
        <mxCell id="apQnh0DDiQVyJaAQIJS3-23" value="" style="endArrow=none;html=1;rounded=0;exitX=1;exitY=0;exitDx=0;exitDy=0;" parent="1" source="apQnh0DDiQVyJaAQIJS3-9" target="apQnh0DDiQVyJaAQIJS3-24" edge="1">
          <mxGeometry relative="1" as="geometry">
            <mxPoint x="530" y="240" as="sourcePoint" />
            <mxPoint x="630" y="100" as="targetPoint" />
          </mxGeometry>
        </mxCell>
        <mxCell id="apQnh0DDiQVyJaAQIJS3-24" value="email" style="ellipse;whiteSpace=wrap;html=1;align=center;fontStyle=4;" parent="1" vertex="1">
          <mxGeometry x="600" y="90" width="100" height="40" as="geometry" />
        </mxCell>
        <mxCell id="apQnh0DDiQVyJaAQIJS3-25" value="" style="endArrow=none;html=1;rounded=0;exitX=1;exitY=0.5;exitDx=0;exitDy=0;" parent="1" source="apQnh0DDiQVyJaAQIJS3-9" edge="1">
          <mxGeometry relative="1" as="geometry">
            <mxPoint x="530" y="200" as="sourcePoint" />
            <mxPoint x="780" y="180" as="targetPoint" />
          </mxGeometry>
        </mxCell>
        <mxCell id="apQnh0DDiQVyJaAQIJS3-26" value="profile" style="whiteSpace=wrap;html=1;align=center;" parent="1" vertex="1">
          <mxGeometry x="770" y="160" width="100" height="40" as="geometry" />
        </mxCell>
        <mxCell id="apQnh0DDiQVyJaAQIJS3-27" value="" style="endArrow=none;html=1;rounded=0;exitX=0.64;exitY=0.967;exitDx=0;exitDy=0;exitPerimeter=0;" parent="1" source="apQnh0DDiQVyJaAQIJS3-1" target="apQnh0DDiQVyJaAQIJS3-28" edge="1">
          <mxGeometry relative="1" as="geometry">
            <mxPoint x="390" y="230" as="sourcePoint" />
            <mxPoint x="250" y="290" as="targetPoint" />
          </mxGeometry>
        </mxCell>
        <mxCell id="apQnh0DDiQVyJaAQIJS3-28" value="profile" style="ellipse;whiteSpace=wrap;html=1;align=center;" parent="1" vertex="1">
          <mxGeometry x="200" y="270" width="100" height="40" as="geometry" />
        </mxCell>
        <mxCell id="apQnh0DDiQVyJaAQIJS3-29" value="" style="endArrow=none;html=1;rounded=0;exitX=0.053;exitY=0.8;exitDx=0;exitDy=0;exitPerimeter=0;" parent="1" source="apQnh0DDiQVyJaAQIJS3-28" target="apQnh0DDiQVyJaAQIJS3-30" edge="1">
          <mxGeometry relative="1" as="geometry">
            <mxPoint x="390" y="230" as="sourcePoint" />
            <mxPoint x="120" y="340" as="targetPoint" />
          </mxGeometry>
        </mxCell>
        <mxCell id="apQnh0DDiQVyJaAQIJS3-30" value="foto profile" style="ellipse;whiteSpace=wrap;html=1;align=center;" parent="1" vertex="1">
          <mxGeometry x="60" y="330" width="100" height="40" as="geometry" />
        </mxCell>
        <mxCell id="apQnh0DDiQVyJaAQIJS3-32" value="bio" style="ellipse;whiteSpace=wrap;html=1;align=center;" parent="1" vertex="1">
          <mxGeometry x="160" y="370" width="100" height="40" as="geometry" />
        </mxCell>
        <mxCell id="apQnh0DDiQVyJaAQIJS3-34" value="" style="endArrow=none;html=1;rounded=0;entryX=0.5;entryY=0;entryDx=0;entryDy=0;" parent="1" source="apQnh0DDiQVyJaAQIJS3-28" target="apQnh0DDiQVyJaAQIJS3-32" edge="1">
          <mxGeometry relative="1" as="geometry">
            <mxPoint x="390" y="390" as="sourcePoint" />
            <mxPoint x="550" y="390" as="targetPoint" />
          </mxGeometry>
        </mxCell>
        <mxCell id="apQnh0DDiQVyJaAQIJS3-35" value="nama pengguna" style="ellipse;whiteSpace=wrap;html=1;align=center;" parent="1" vertex="1">
          <mxGeometry x="280" y="350" width="100" height="40" as="geometry" />
        </mxCell>
        <mxCell id="apQnh0DDiQVyJaAQIJS3-36" value="" style="endArrow=none;html=1;rounded=0;exitX=1;exitY=1;exitDx=0;exitDy=0;entryX=0.5;entryY=0;entryDx=0;entryDy=0;" parent="1" source="apQnh0DDiQVyJaAQIJS3-28" target="apQnh0DDiQVyJaAQIJS3-35" edge="1">
          <mxGeometry relative="1" as="geometry">
            <mxPoint x="400" y="300" as="sourcePoint" />
            <mxPoint x="560" y="300" as="targetPoint" />
          </mxGeometry>
        </mxCell>
        <mxCell id="apQnh0DDiQVyJaAQIJS3-37" value="" style="endArrow=none;html=1;rounded=0;exitX=0.173;exitY=-0.05;exitDx=0;exitDy=0;exitPerimeter=0;" parent="1" source="apQnh0DDiQVyJaAQIJS3-26" edge="1">
          <mxGeometry relative="1" as="geometry">
            <mxPoint x="920" y="280" as="sourcePoint" />
            <mxPoint x="720" y="70" as="targetPoint" />
          </mxGeometry>
        </mxCell>
        <mxCell id="apQnh0DDiQVyJaAQIJS3-38" value="bio" style="ellipse;whiteSpace=wrap;html=1;align=center;" parent="1" vertex="1">
          <mxGeometry x="670" y="40" width="100" height="40" as="geometry" />
        </mxCell>
        <mxCell id="apQnh0DDiQVyJaAQIJS3-39" value="" style="endArrow=none;html=1;rounded=0;entryX=0.5;entryY=0;entryDx=0;entryDy=0;exitX=0.5;exitY=1;exitDx=0;exitDy=0;" parent="1" source="apQnh0DDiQVyJaAQIJS3-40" target="apQnh0DDiQVyJaAQIJS3-26" edge="1">
          <mxGeometry relative="1" as="geometry">
            <mxPoint x="810" y="80" as="sourcePoint" />
            <mxPoint x="800" y="80" as="targetPoint" />
          </mxGeometry>
        </mxCell>
        <mxCell id="apQnh0DDiQVyJaAQIJS3-40" value="nama pengguna" style="ellipse;whiteSpace=wrap;html=1;align=center;" parent="1" vertex="1">
          <mxGeometry x="780" y="40" width="100" height="40" as="geometry" />
        </mxCell>
        <mxCell id="apQnh0DDiQVyJaAQIJS3-41" value="" style="endArrow=none;html=1;rounded=0;exitX=0.887;exitY=0.05;exitDx=0;exitDy=0;exitPerimeter=0;" parent="1" source="apQnh0DDiQVyJaAQIJS3-26" target="apQnh0DDiQVyJaAQIJS3-42" edge="1">
          <mxGeometry relative="1" as="geometry">
            <mxPoint x="960" y="240" as="sourcePoint" />
            <mxPoint x="940" y="80" as="targetPoint" />
          </mxGeometry>
        </mxCell>
        <mxCell id="apQnh0DDiQVyJaAQIJS3-42" value="foto profile" style="ellipse;whiteSpace=wrap;html=1;align=center;" parent="1" vertex="1">
          <mxGeometry x="890" y="60" width="100" height="40" as="geometry" />
        </mxCell>
        <mxCell id="apQnh0DDiQVyJaAQIJS3-43" value="" style="endArrow=none;html=1;rounded=0;exitX=1;exitY=0.5;exitDx=0;exitDy=0;" parent="1" source="apQnh0DDiQVyJaAQIJS3-26" target="apQnh0DDiQVyJaAQIJS3-44" edge="1">
          <mxGeometry relative="1" as="geometry">
            <mxPoint x="900" y="190" as="sourcePoint" />
            <mxPoint x="980" y="140" as="targetPoint" />
          </mxGeometry>
        </mxCell>
        <mxCell id="apQnh0DDiQVyJaAQIJS3-44" value="tanggal lahir" style="ellipse;whiteSpace=wrap;html=1;align=center;" parent="1" vertex="1">
          <mxGeometry x="930" y="120" width="100" height="40" as="geometry" />
        </mxCell>
        <mxCell id="apQnh0DDiQVyJaAQIJS3-45" value="" style="endArrow=none;html=1;rounded=0;exitX=1;exitY=0.75;exitDx=0;exitDy=0;" parent="1" source="apQnh0DDiQVyJaAQIJS3-26" edge="1">
          <mxGeometry relative="1" as="geometry">
            <mxPoint x="1000" y="210" as="sourcePoint" />
            <mxPoint x="950.8304378529988" y="196.37003232471807" as="targetPoint" />
          </mxGeometry>
        </mxCell>
        <mxCell id="apQnh0DDiQVyJaAQIJS3-47" value="password" style="ellipse;whiteSpace=wrap;html=1;align=center;fontStyle=4;" parent="1" vertex="1">
          <mxGeometry x="950" y="180" width="100" height="40" as="geometry" />
        </mxCell>
        <mxCell id="apQnh0DDiQVyJaAQIJS3-48" value="password" style="ellipse;whiteSpace=wrap;html=1;align=center;fontStyle=4;" parent="1" vertex="1">
          <mxGeometry x="380" y="320" width="100" height="40" as="geometry" />
        </mxCell>
        <mxCell id="apQnh0DDiQVyJaAQIJS3-49" value="" style="endArrow=none;html=1;rounded=0;exitX=1;exitY=0.5;exitDx=0;exitDy=0;entryX=0.417;entryY=0.054;entryDx=0;entryDy=0;entryPerimeter=0;" parent="1" source="apQnh0DDiQVyJaAQIJS3-28" target="apQnh0DDiQVyJaAQIJS3-48" edge="1">
          <mxGeometry relative="1" as="geometry">
            <mxPoint x="310" y="290" as="sourcePoint" />
            <mxPoint x="400" y="300" as="targetPoint" />
          </mxGeometry>
        </mxCell>
        <mxCell id="apQnh0DDiQVyJaAQIJS3-50" value="" style="endArrow=none;html=1;rounded=0;exitX=0.5;exitY=1;exitDx=0;exitDy=0;" parent="1" source="apQnh0DDiQVyJaAQIJS3-26" edge="1">
          <mxGeometry relative="1" as="geometry">
            <mxPoint x="800" y="240" as="sourcePoint" />
            <mxPoint x="820" y="320" as="targetPoint" />
          </mxGeometry>
        </mxCell>
        <mxCell id="apQnh0DDiQVyJaAQIJS3-51" value="menu" style="shape=rhombus;perimeter=rhombusPerimeter;whiteSpace=wrap;html=1;align=center;" parent="1" vertex="1">
          <mxGeometry x="760" y="310" width="120" height="60" as="geometry" />
        </mxCell>
        <mxCell id="apQnh0DDiQVyJaAQIJS3-53" value="password" style="ellipse;whiteSpace=wrap;html=1;align=center;fontStyle=4;" parent="1" vertex="1">
          <mxGeometry x="390" y="250" width="100" height="40" as="geometry" />
        </mxCell>
        <mxCell id="apQnh0DDiQVyJaAQIJS3-54" value="" style="endArrow=none;html=1;rounded=0;exitX=0.5;exitY=0;exitDx=0;exitDy=0;entryX=0.286;entryY=0.857;entryDx=0;entryDy=0;entryPerimeter=0;" parent="1" source="apQnh0DDiQVyJaAQIJS3-53" target="apQnh0DDiQVyJaAQIJS3-9" edge="1">
          <mxGeometry relative="1" as="geometry">
            <mxPoint x="600" y="190" as="sourcePoint" />
            <mxPoint x="760" y="190" as="targetPoint" />
          </mxGeometry>
        </mxCell>
        <mxCell id="apQnh0DDiQVyJaAQIJS3-55" value="" style="endArrow=none;html=1;rounded=0;entryX=0.5;entryY=1;entryDx=0;entryDy=0;" parent="1" target="apQnh0DDiQVyJaAQIJS3-51" edge="1">
          <mxGeometry relative="1" as="geometry">
            <mxPoint x="820" y="510" as="sourcePoint" />
            <mxPoint x="860" y="450" as="targetPoint" />
          </mxGeometry>
        </mxCell>
        <mxCell id="apQnh0DDiQVyJaAQIJS3-57" value="room" style="whiteSpace=wrap;html=1;align=center;" parent="1" vertex="1">
          <mxGeometry x="770" y="510" width="100" height="40" as="geometry" />
        </mxCell>
        <mxCell id="apQnh0DDiQVyJaAQIJS3-58" value="test" style="ellipse;whiteSpace=wrap;html=1;align=center;" parent="1" vertex="1">
          <mxGeometry x="920" y="425" width="100" height="40" as="geometry" />
        </mxCell>
        <mxCell id="apQnh0DDiQVyJaAQIJS3-59" value="" style="endArrow=none;html=1;rounded=0;entryX=1;entryY=0.25;entryDx=0;entryDy=0;" parent="1" source="apQnh0DDiQVyJaAQIJS3-58" target="apQnh0DDiQVyJaAQIJS3-57" edge="1">
          <mxGeometry relative="1" as="geometry">
            <mxPoint x="980" y="440" as="sourcePoint" />
            <mxPoint x="990" y="390" as="targetPoint" />
          </mxGeometry>
        </mxCell>
        <mxCell id="apQnh0DDiQVyJaAQIJS3-60" value="" style="endArrow=none;html=1;rounded=0;exitX=1;exitY=0.5;exitDx=0;exitDy=0;entryX=0;entryY=0.5;entryDx=0;entryDy=0;" parent="1" source="apQnh0DDiQVyJaAQIJS3-57" target="apQnh0DDiQVyJaAQIJS3-62" edge="1">
          <mxGeometry relative="1" as="geometry">
            <mxPoint x="880" y="540" as="sourcePoint" />
            <mxPoint x="950" y="510" as="targetPoint" />
          </mxGeometry>
        </mxCell>
        <mxCell id="apQnh0DDiQVyJaAQIJS3-62" value="about" style="ellipse;whiteSpace=wrap;html=1;align=center;" parent="1" vertex="1">
          <mxGeometry x="990" y="510" width="100" height="40" as="geometry" />
        </mxCell>
        <mxCell id="apQnh0DDiQVyJaAQIJS3-63" value="" style="endArrow=none;html=1;rounded=0;exitX=1;exitY=0.75;exitDx=0;exitDy=0;" parent="1" source="apQnh0DDiQVyJaAQIJS3-57" target="apQnh0DDiQVyJaAQIJS3-64" edge="1">
          <mxGeometry relative="1" as="geometry">
            <mxPoint x="870" y="560" as="sourcePoint" />
            <mxPoint x="1000" y="560" as="targetPoint" />
          </mxGeometry>
        </mxCell>
        <mxCell id="apQnh0DDiQVyJaAQIJS3-64" value="penjagaan" style="ellipse;whiteSpace=wrap;html=1;align=center;" parent="1" vertex="1">
          <mxGeometry x="940" y="600" width="100" height="40" as="geometry" />
        </mxCell>
        <mxCell id="apQnh0DDiQVyJaAQIJS3-65" value="penanaman" style="ellipse;whiteSpace=wrap;html=1;align=center;" parent="1" vertex="1">
          <mxGeometry x="820" y="650" width="100" height="40" as="geometry" />
        </mxCell>
        <mxCell id="apQnh0DDiQVyJaAQIJS3-68" value="" style="endArrow=none;html=1;rounded=0;exitX=0.75;exitY=1;exitDx=0;exitDy=0;" parent="1" source="apQnh0DDiQVyJaAQIJS3-57" target="apQnh0DDiQVyJaAQIJS3-65" edge="1">
          <mxGeometry relative="1" as="geometry">
            <mxPoint x="850" y="560" as="sourcePoint" />
            <mxPoint x="1080" y="610" as="targetPoint" />
          </mxGeometry>
        </mxCell>
        <mxCell id="apQnh0DDiQVyJaAQIJS3-69" value="" style="endArrow=none;html=1;rounded=0;exitX=0.5;exitY=1;exitDx=0;exitDy=0;" parent="1" source="apQnh0DDiQVyJaAQIJS3-57" target="apQnh0DDiQVyJaAQIJS3-70" edge="1">
          <mxGeometry relative="1" as="geometry">
            <mxPoint x="810" y="520" as="sourcePoint" />
            <mxPoint x="820" y="630" as="targetPoint" />
          </mxGeometry>
        </mxCell>
        <mxCell id="apQnh0DDiQVyJaAQIJS3-70" value="perawatan" style="ellipse;whiteSpace=wrap;html=1;align=center;" parent="1" vertex="1">
          <mxGeometry x="710" y="630" width="100" height="40" as="geometry" />
        </mxCell>
        <mxCell id="jAPxzFUOVxol9XaJ-HOr-2" value="luas tanah" style="ellipse;whiteSpace=wrap;html=1;align=center;" parent="1" vertex="1">
          <mxGeometry x="800" y="790" width="100" height="40" as="geometry" />
        </mxCell>
        <mxCell id="jAPxzFUOVxol9XaJ-HOr-4" value="" style="endArrow=none;html=1;rounded=0;exitX=0.58;exitY=1;exitDx=0;exitDy=0;exitPerimeter=0;entryX=0.3;entryY=0.05;entryDx=0;entryDy=0;entryPerimeter=0;" parent="1" source="apQnh0DDiQVyJaAQIJS3-65" edge="1">
          <mxGeometry relative="1" as="geometry">
            <mxPoint x="960" y="750" as="sourcePoint" />
            <mxPoint x="950" y="772" as="targetPoint" />
          </mxGeometry>
        </mxCell>
        <mxCell id="jAPxzFUOVxol9XaJ-HOr-5" value="" style="endArrow=none;html=1;rounded=0;entryX=0.5;entryY=0;entryDx=0;entryDy=0;exitX=0.36;exitY=0.9;exitDx=0;exitDy=0;exitPerimeter=0;" parent="1" source="apQnh0DDiQVyJaAQIJS3-65" target="jAPxzFUOVxol9XaJ-HOr-2" edge="1">
          <mxGeometry relative="1" as="geometry">
            <mxPoint x="820" y="750" as="sourcePoint" />
            <mxPoint x="980" y="750" as="targetPoint" />
          </mxGeometry>
        </mxCell>
        <mxCell id="jAPxzFUOVxol9XaJ-HOr-7" value="" style="endArrow=none;html=1;rounded=0;exitX=1;exitY=0.5;exitDx=0;exitDy=0;" parent="1" source="apQnh0DDiQVyJaAQIJS3-65" edge="1">
          <mxGeometry relative="1" as="geometry">
            <mxPoint x="1170" y="690" as="sourcePoint" />
            <mxPoint x="1020.1837999331342" y="723.9451230409184" as="targetPoint" />
          </mxGeometry>
        </mxCell>
        <mxCell id="jAPxzFUOVxol9XaJ-HOr-9" value="bibit" style="ellipse;shape=doubleEllipse;margin=3;whiteSpace=wrap;html=1;align=center;" parent="1" vertex="1">
          <mxGeometry x="910" y="770" width="100" height="40" as="geometry" />
        </mxCell>
        <mxCell id="jAPxzFUOVxol9XaJ-HOr-10" value="pupuk" style="ellipse;shape=doubleEllipse;margin=3;whiteSpace=wrap;html=1;align=center;" parent="1" vertex="1">
          <mxGeometry x="990" y="720" width="100" height="40" as="geometry" />
        </mxCell>
        <mxCell id="Ht63HfaZOrjBeJGnBg6k-1" value="" style="endArrow=none;html=1;rounded=0;entryX=0;entryY=1;entryDx=0;entryDy=0;" parent="1" target="apQnh0DDiQVyJaAQIJS3-70" edge="1">
          <mxGeometry relative="1" as="geometry">
            <mxPoint x="660" y="720" as="sourcePoint" />
            <mxPoint x="770" y="730" as="targetPoint" />
          </mxGeometry>
        </mxCell>
        <mxCell id="Ht63HfaZOrjBeJGnBg6k-2" value="Pupuk" style="ellipse;whiteSpace=wrap;html=1;align=center;" parent="1" vertex="1">
          <mxGeometry x="580" y="710" width="100" height="40" as="geometry" />
        </mxCell>
        <mxCell id="Ht63HfaZOrjBeJGnBg6k-3" value="" style="endArrow=none;html=1;rounded=0;entryX=0.42;entryY=0.967;entryDx=0;entryDy=0;entryPerimeter=0;" parent="1" target="apQnh0DDiQVyJaAQIJS3-70" edge="1">
          <mxGeometry relative="1" as="geometry">
            <mxPoint x="700" y="780" as="sourcePoint" />
            <mxPoint x="800" y="760" as="targetPoint" />
          </mxGeometry>
        </mxCell>
        <mxCell id="Ht63HfaZOrjBeJGnBg6k-4" value="Penyiraman" style="ellipse;whiteSpace=wrap;html=1;align=center;" parent="1" vertex="1">
          <mxGeometry x="650" y="770" width="100" height="40" as="geometry" />
        </mxCell>
        <mxCell id="Ht63HfaZOrjBeJGnBg6k-5" value="" style="endArrow=none;html=1;rounded=0;entryX=0;entryY=0.5;entryDx=0;entryDy=0;" parent="1" target="apQnh0DDiQVyJaAQIJS3-70" edge="1">
          <mxGeometry relative="1" as="geometry">
            <mxPoint x="570" y="680" as="sourcePoint" />
            <mxPoint x="800" y="760" as="targetPoint" />
          </mxGeometry>
        </mxCell>
        <mxCell id="Ht63HfaZOrjBeJGnBg6k-11" value="jenis tanaman" style="ellipse;whiteSpace=wrap;html=1;align=center;fontStyle=4;" parent="1" vertex="1">
          <mxGeometry x="500" y="670" width="100" height="40" as="geometry" />
        </mxCell>
        <mxCell id="Ht63HfaZOrjBeJGnBg6k-12" value="jenis hama" style="ellipse;whiteSpace=wrap;html=1;align=center;fontStyle=4;" parent="1" vertex="1">
          <mxGeometry x="1110" y="560" width="100" height="40" as="geometry" />
        </mxCell>
        <mxCell id="Ht63HfaZOrjBeJGnBg6k-13" value="" style="endArrow=none;html=1;rounded=0;exitX=0.96;exitY=0.283;exitDx=0;exitDy=0;exitPerimeter=0;" parent="1" source="apQnh0DDiQVyJaAQIJS3-64" target="Ht63HfaZOrjBeJGnBg6k-12" edge="1">
          <mxGeometry relative="1" as="geometry">
            <mxPoint x="1030" y="700" as="sourcePoint" />
            <mxPoint x="1190" y="700" as="targetPoint" />
          </mxGeometry>
        </mxCell>
        <mxCell id="Ht63HfaZOrjBeJGnBg6k-14" value="" style="endArrow=none;html=1;rounded=0;exitX=0.92;exitY=0.85;exitDx=0;exitDy=0;exitPerimeter=0;" parent="1" source="apQnh0DDiQVyJaAQIJS3-64" target="Ht63HfaZOrjBeJGnBg6k-15" edge="1">
          <mxGeometry relative="1" as="geometry">
            <mxPoint x="1030" y="700" as="sourcePoint" />
            <mxPoint x="1190" y="700" as="targetPoint" />
          </mxGeometry>
        </mxCell>
        <mxCell id="Ht63HfaZOrjBeJGnBg6k-15" value="alat alat" style="ellipse;whiteSpace=wrap;html=1;align=center;" parent="1" vertex="1">
          <mxGeometry x="1120" y="630" width="100" height="40" as="geometry" />
        </mxCell>
        <mxCell id="Ht63HfaZOrjBeJGnBg6k-16" value="bqhan" style="ellipse;whiteSpace=wrap;html=1;align=center;" parent="1" vertex="1">
          <mxGeometry x="1120" y="700" width="100" height="40" as="geometry" />
        </mxCell>
        <mxCell id="Ht63HfaZOrjBeJGnBg6k-17" value="" style="endArrow=none;html=1;rounded=0;entryX=0;entryY=0.5;entryDx=0;entryDy=0;" parent="1" source="apQnh0DDiQVyJaAQIJS3-64" target="Ht63HfaZOrjBeJGnBg6k-16" edge="1">
          <mxGeometry relative="1" as="geometry">
            <mxPoint x="920" y="720" as="sourcePoint" />
            <mxPoint x="1080" y="720" as="targetPoint" />
          </mxGeometry>
        </mxCell>
        <mxCell id="Ht63HfaZOrjBeJGnBg6k-18" value="" style="endArrow=none;html=1;rounded=0;entryX=0.613;entryY=-0.033;entryDx=0;entryDy=0;entryPerimeter=0;" parent="1" target="apQnh0DDiQVyJaAQIJS3-62" edge="1">
          <mxGeometry relative="1" as="geometry">
            <mxPoint x="1160" y="440" as="sourcePoint" />
            <mxPoint x="1050" y="390" as="targetPoint" />
          </mxGeometry>
        </mxCell>
        <mxCell id="Ht63HfaZOrjBeJGnBg6k-19" value="penjelasan terkait tanaman" style="ellipse;whiteSpace=wrap;html=1;align=center;" parent="1" vertex="1">
          <mxGeometry x="1120" y="405" width="100" height="40" as="geometry" />
        </mxCell>
        <mxCell id="Ht63HfaZOrjBeJGnBg6k-20" value="cara tanam" style="ellipse;whiteSpace=wrap;html=1;align=center;" parent="1" vertex="1">
          <mxGeometry x="1150" y="465" width="100" height="40" as="geometry" />
        </mxCell>
        <mxCell id="Ht63HfaZOrjBeJGnBg6k-21" value="" style="endArrow=none;html=1;rounded=0;entryX=0;entryY=0.5;entryDx=0;entryDy=0;" parent="1" source="apQnh0DDiQVyJaAQIJS3-62" target="Ht63HfaZOrjBeJGnBg6k-20" edge="1">
          <mxGeometry relative="1" as="geometry">
            <mxPoint x="890" y="390" as="sourcePoint" />
            <mxPoint x="1050" y="390" as="targetPoint" />
          </mxGeometry>
        </mxCell>
        <mxCell id="Ht63HfaZOrjBeJGnBg6k-22" value="" style="endArrow=none;html=1;rounded=0;exitX=1;exitY=0.5;exitDx=0;exitDy=0;" parent="1" source="apQnh0DDiQVyJaAQIJS3-62" target="Ht63HfaZOrjBeJGnBg6k-23" edge="1">
          <mxGeometry relative="1" as="geometry">
            <mxPoint x="890" y="390" as="sourcePoint" />
            <mxPoint x="1180" y="540" as="targetPoint" />
          </mxGeometry>
        </mxCell>
        <mxCell id="Ht63HfaZOrjBeJGnBg6k-23" value="perawatan" style="ellipse;whiteSpace=wrap;html=1;align=center;" parent="1" vertex="1">
          <mxGeometry x="1180" y="520" width="100" height="40" as="geometry" />
        </mxCell>
        <mxCell id="Ht63HfaZOrjBeJGnBg6k-24" value="perawatan" style="ellipse;whiteSpace=wrap;html=1;align=center;" parent="1" vertex="1">
          <mxGeometry x="860" y="350" width="100" height="40" as="geometry" />
        </mxCell>
        <mxCell id="Ht63HfaZOrjBeJGnBg6k-25" value="" style="endArrow=none;html=1;rounded=0;exitX=0.433;exitY=-0.008;exitDx=0;exitDy=0;exitPerimeter=0;" parent="1" source="apQnh0DDiQVyJaAQIJS3-58" target="Ht63HfaZOrjBeJGnBg6k-24" edge="1">
          <mxGeometry relative="1" as="geometry">
            <mxPoint x="890" y="570" as="sourcePoint" />
            <mxPoint x="1050" y="570" as="targetPoint" />
          </mxGeometry>
        </mxCell>
        <mxCell id="Ht63HfaZOrjBeJGnBg6k-26" value="" style="endArrow=none;html=1;rounded=0;exitX=0.727;exitY=0.042;exitDx=0;exitDy=0;exitPerimeter=0;" parent="1" source="apQnh0DDiQVyJaAQIJS3-58" target="Ht63HfaZOrjBeJGnBg6k-27" edge="1">
          <mxGeometry relative="1" as="geometry">
            <mxPoint x="870" y="510" as="sourcePoint" />
            <mxPoint x="1020" y="340" as="targetPoint" />
          </mxGeometry>
        </mxCell>
        <mxCell id="Ht63HfaZOrjBeJGnBg6k-27" value="penanaman" style="ellipse;whiteSpace=wrap;html=1;align=center;" parent="1" vertex="1">
          <mxGeometry x="920" y="300" width="100" height="40" as="geometry" />
        </mxCell>
        <mxCell id="Ht63HfaZOrjBeJGnBg6k-28" value="" style="endArrow=none;html=1;rounded=0;entryX=0.933;entryY=0.208;entryDx=0;entryDy=0;entryPerimeter=0;" parent="1" target="apQnh0DDiQVyJaAQIJS3-58" edge="1">
          <mxGeometry relative="1" as="geometry">
            <mxPoint x="1080" y="360" as="sourcePoint" />
            <mxPoint x="1030" y="340" as="targetPoint" />
          </mxGeometry>
        </mxCell>
        <mxCell id="Ht63HfaZOrjBeJGnBg6k-29" value="penjagaan" style="ellipse;whiteSpace=wrap;html=1;align=center;" parent="1" vertex="1">
          <mxGeometry x="1030" y="330" width="100" height="40" as="geometry" />
        </mxCell>
        <mxCell id="4-tsahAi8-9u7SyYjMyO-53" value="Profil" style="shape=table;startSize=30;container=1;collapsible=1;childLayout=tableLayout;fixedRows=1;rowLines=0;fontStyle=1;align=center;resizeLast=1;html=1;whiteSpace=wrap;" vertex="1" parent="1">
          <mxGeometry x="2110" y="110" width="180" height="150" as="geometry" />
        </mxCell>
        <mxCell id="4-tsahAi8-9u7SyYjMyO-54" value="" style="shape=tableRow;horizontal=0;startSize=0;swimlaneHead=0;swimlaneBody=0;fillColor=none;collapsible=0;dropTarget=0;points=[[0,0.5],[1,0.5]];portConstraint=eastwest;top=0;left=0;right=0;bottom=0;html=1;" vertex="1" parent="4-tsahAi8-9u7SyYjMyO-53">
          <mxGeometry y="30" width="180" height="30" as="geometry" />
        </mxCell>
        <mxCell id="4-tsahAi8-9u7SyYjMyO-55" value="PK,FK1" style="shape=partialRectangle;connectable=0;fillColor=none;top=0;left=0;bottom=0;right=0;fontStyle=1;overflow=hidden;html=1;whiteSpace=wrap;" vertex="1" parent="4-tsahAi8-9u7SyYjMyO-54">
          <mxGeometry width="60" height="30" as="geometry">
            <mxRectangle width="60" height="30" as="alternateBounds" />
          </mxGeometry>
        </mxCell>
        <mxCell id="4-tsahAi8-9u7SyYjMyO-56" value="Idprofil" style="shape=partialRectangle;connectable=0;fillColor=none;top=0;left=0;bottom=0;right=0;align=left;spacingLeft=6;fontStyle=5;overflow=hidden;html=1;whiteSpace=wrap;" vertex="1" parent="4-tsahAi8-9u7SyYjMyO-54">
          <mxGeometry x="60" width="120" height="30" as="geometry">
            <mxRectangle width="120" height="30" as="alternateBounds" />
          </mxGeometry>
        </mxCell>
        <mxCell id="4-tsahAi8-9u7SyYjMyO-57" value="" style="shape=tableRow;horizontal=0;startSize=0;swimlaneHead=0;swimlaneBody=0;fillColor=none;collapsible=0;dropTarget=0;points=[[0,0.5],[1,0.5]];portConstraint=eastwest;top=0;left=0;right=0;bottom=1;html=1;" vertex="1" parent="4-tsahAi8-9u7SyYjMyO-53">
          <mxGeometry y="60" width="180" height="30" as="geometry" />
        </mxCell>
        <mxCell id="4-tsahAi8-9u7SyYjMyO-58" value="PK,FK2" style="shape=partialRectangle;connectable=0;fillColor=none;top=0;left=0;bottom=0;right=0;fontStyle=1;overflow=hidden;html=1;whiteSpace=wrap;" vertex="1" parent="4-tsahAi8-9u7SyYjMyO-57">
          <mxGeometry width="60" height="30" as="geometry">
            <mxRectangle width="60" height="30" as="alternateBounds" />
          </mxGeometry>
        </mxCell>
        <mxCell id="4-tsahAi8-9u7SyYjMyO-59" value="Iduser" style="shape=partialRectangle;connectable=0;fillColor=none;top=0;left=0;bottom=0;right=0;align=left;spacingLeft=6;fontStyle=5;overflow=hidden;html=1;whiteSpace=wrap;" vertex="1" parent="4-tsahAi8-9u7SyYjMyO-57">
          <mxGeometry x="60" width="120" height="30" as="geometry">
            <mxRectangle width="120" height="30" as="alternateBounds" />
          </mxGeometry>
        </mxCell>
        <mxCell id="4-tsahAi8-9u7SyYjMyO-60" value="" style="shape=tableRow;horizontal=0;startSize=0;swimlaneHead=0;swimlaneBody=0;fillColor=none;collapsible=0;dropTarget=0;points=[[0,0.5],[1,0.5]];portConstraint=eastwest;top=0;left=0;right=0;bottom=0;html=1;" vertex="1" parent="4-tsahAi8-9u7SyYjMyO-53">
          <mxGeometry y="90" width="180" height="30" as="geometry" />
        </mxCell>
        <mxCell id="4-tsahAi8-9u7SyYjMyO-61" value="" style="shape=partialRectangle;connectable=0;fillColor=none;top=0;left=0;bottom=0;right=0;editable=1;overflow=hidden;html=1;whiteSpace=wrap;" vertex="1" parent="4-tsahAi8-9u7SyYjMyO-60">
          <mxGeometry width="60" height="30" as="geometry">
            <mxRectangle width="60" height="30" as="alternateBounds" />
          </mxGeometry>
        </mxCell>
        <mxCell id="4-tsahAi8-9u7SyYjMyO-62" value="nama pengguna" style="shape=partialRectangle;connectable=0;fillColor=none;top=0;left=0;bottom=0;right=0;align=left;spacingLeft=6;overflow=hidden;html=1;whiteSpace=wrap;" vertex="1" parent="4-tsahAi8-9u7SyYjMyO-60">
          <mxGeometry x="60" width="120" height="30" as="geometry">
            <mxRectangle width="120" height="30" as="alternateBounds" />
          </mxGeometry>
        </mxCell>
        <mxCell id="4-tsahAi8-9u7SyYjMyO-63" value="" style="shape=tableRow;horizontal=0;startSize=0;swimlaneHead=0;swimlaneBody=0;fillColor=none;collapsible=0;dropTarget=0;points=[[0,0.5],[1,0.5]];portConstraint=eastwest;top=0;left=0;right=0;bottom=0;html=1;" vertex="1" parent="4-tsahAi8-9u7SyYjMyO-53">
          <mxGeometry y="120" width="180" height="30" as="geometry" />
        </mxCell>
        <mxCell id="4-tsahAi8-9u7SyYjMyO-64" value="" style="shape=partialRectangle;connectable=0;fillColor=none;top=0;left=0;bottom=0;right=0;editable=1;overflow=hidden;html=1;whiteSpace=wrap;" vertex="1" parent="4-tsahAi8-9u7SyYjMyO-63">
          <mxGeometry width="60" height="30" as="geometry">
            <mxRectangle width="60" height="30" as="alternateBounds" />
          </mxGeometry>
        </mxCell>
        <mxCell id="4-tsahAi8-9u7SyYjMyO-65" value="bio" style="shape=partialRectangle;connectable=0;fillColor=none;top=0;left=0;bottom=0;right=0;align=left;spacingLeft=6;overflow=hidden;html=1;whiteSpace=wrap;" vertex="1" parent="4-tsahAi8-9u7SyYjMyO-63">
          <mxGeometry x="60" width="120" height="30" as="geometry">
            <mxRectangle width="120" height="30" as="alternateBounds" />
          </mxGeometry>
        </mxCell>
        <mxCell id="4-tsahAi8-9u7SyYjMyO-14" value="User" style="shape=table;startSize=30;container=1;collapsible=1;childLayout=tableLayout;fixedRows=1;rowLines=0;fontStyle=1;align=center;resizeLast=1;html=1;" vertex="1" parent="1">
          <mxGeometry x="1800" y="110" width="180" height="150" as="geometry">
            <mxRectangle x="1930" y="200" width="70" height="30" as="alternateBounds" />
          </mxGeometry>
        </mxCell>
        <mxCell id="4-tsahAi8-9u7SyYjMyO-15" value="" style="shape=tableRow;horizontal=0;startSize=0;swimlaneHead=0;swimlaneBody=0;fillColor=none;collapsible=0;dropTarget=0;points=[[0,0.5],[1,0.5]];portConstraint=eastwest;top=0;left=0;right=0;bottom=1;" vertex="1" parent="4-tsahAi8-9u7SyYjMyO-14">
          <mxGeometry y="30" width="180" height="30" as="geometry" />
        </mxCell>
        <mxCell id="4-tsahAi8-9u7SyYjMyO-16" value="PK" style="shape=partialRectangle;connectable=0;fillColor=none;top=0;left=0;bottom=0;right=0;fontStyle=1;overflow=hidden;whiteSpace=wrap;html=1;" vertex="1" parent="4-tsahAi8-9u7SyYjMyO-15">
          <mxGeometry width="30" height="30" as="geometry">
            <mxRectangle width="30" height="30" as="alternateBounds" />
          </mxGeometry>
        </mxCell>
        <mxCell id="4-tsahAi8-9u7SyYjMyO-17" value="IDUSER" style="shape=partialRectangle;connectable=0;fillColor=none;top=0;left=0;bottom=0;right=0;align=left;spacingLeft=6;fontStyle=5;overflow=hidden;whiteSpace=wrap;html=1;" vertex="1" parent="4-tsahAi8-9u7SyYjMyO-15">
          <mxGeometry x="30" width="150" height="30" as="geometry">
            <mxRectangle width="150" height="30" as="alternateBounds" />
          </mxGeometry>
        </mxCell>
        <mxCell id="4-tsahAi8-9u7SyYjMyO-18" value="" style="shape=tableRow;horizontal=0;startSize=0;swimlaneHead=0;swimlaneBody=0;fillColor=none;collapsible=0;dropTarget=0;points=[[0,0.5],[1,0.5]];portConstraint=eastwest;top=0;left=0;right=0;bottom=0;" vertex="1" parent="4-tsahAi8-9u7SyYjMyO-14">
          <mxGeometry y="60" width="180" height="20" as="geometry" />
        </mxCell>
        <mxCell id="4-tsahAi8-9u7SyYjMyO-19" value="" style="shape=partialRectangle;connectable=0;fillColor=none;top=0;left=0;bottom=0;right=0;editable=1;overflow=hidden;whiteSpace=wrap;html=1;" vertex="1" parent="4-tsahAi8-9u7SyYjMyO-18">
          <mxGeometry width="30" height="20" as="geometry">
            <mxRectangle width="30" height="20" as="alternateBounds" />
          </mxGeometry>
        </mxCell>
        <mxCell id="4-tsahAi8-9u7SyYjMyO-20" value="Nama" style="shape=partialRectangle;connectable=0;fillColor=none;top=0;left=0;bottom=0;right=0;align=left;spacingLeft=6;overflow=hidden;whiteSpace=wrap;html=1;" vertex="1" parent="4-tsahAi8-9u7SyYjMyO-18">
          <mxGeometry x="30" width="150" height="20" as="geometry">
            <mxRectangle width="150" height="20" as="alternateBounds" />
          </mxGeometry>
        </mxCell>
        <mxCell id="4-tsahAi8-9u7SyYjMyO-21" value="" style="shape=tableRow;horizontal=0;startSize=0;swimlaneHead=0;swimlaneBody=0;fillColor=none;collapsible=0;dropTarget=0;points=[[0,0.5],[1,0.5]];portConstraint=eastwest;top=0;left=0;right=0;bottom=0;" vertex="1" parent="4-tsahAi8-9u7SyYjMyO-14">
          <mxGeometry y="80" width="180" height="20" as="geometry" />
        </mxCell>
        <mxCell id="4-tsahAi8-9u7SyYjMyO-22" value="" style="shape=partialRectangle;connectable=0;fillColor=none;top=0;left=0;bottom=0;right=0;editable=1;overflow=hidden;whiteSpace=wrap;html=1;" vertex="1" parent="4-tsahAi8-9u7SyYjMyO-21">
          <mxGeometry width="30" height="20" as="geometry">
            <mxRectangle width="30" height="20" as="alternateBounds" />
          </mxGeometry>
        </mxCell>
        <mxCell id="4-tsahAi8-9u7SyYjMyO-23" value="tanggal lahir" style="shape=partialRectangle;connectable=0;fillColor=none;top=0;left=0;bottom=0;right=0;align=left;spacingLeft=6;overflow=hidden;whiteSpace=wrap;html=1;" vertex="1" parent="4-tsahAi8-9u7SyYjMyO-21">
          <mxGeometry x="30" width="150" height="20" as="geometry">
            <mxRectangle width="150" height="20" as="alternateBounds" />
          </mxGeometry>
        </mxCell>
        <mxCell id="4-tsahAi8-9u7SyYjMyO-24" value="" style="shape=tableRow;horizontal=0;startSize=0;swimlaneHead=0;swimlaneBody=0;fillColor=none;collapsible=0;dropTarget=0;points=[[0,0.5],[1,0.5]];portConstraint=eastwest;top=0;left=0;right=0;bottom=0;" vertex="1" parent="4-tsahAi8-9u7SyYjMyO-14">
          <mxGeometry y="100" width="180" height="50" as="geometry" />
        </mxCell>
        <mxCell id="4-tsahAi8-9u7SyYjMyO-25" value="&lt;div&gt;&lt;br&gt;&lt;/div&gt;&lt;div&gt;&lt;br&gt;&lt;/div&gt;" style="shape=partialRectangle;connectable=0;fillColor=none;top=0;left=0;bottom=0;right=0;editable=1;overflow=hidden;whiteSpace=wrap;html=1;" vertex="1" parent="4-tsahAi8-9u7SyYjMyO-24">
          <mxGeometry width="30" height="50" as="geometry">
            <mxRectangle width="30" height="50" as="alternateBounds" />
          </mxGeometry>
        </mxCell>
        <mxCell id="4-tsahAi8-9u7SyYjMyO-26" value="&lt;div&gt;Email&lt;/div&gt;&lt;div&gt;kata sandi&amp;nbsp;&lt;/div&gt;&lt;div&gt;bio&lt;/div&gt;&lt;div&gt;&lt;br&gt;&lt;/div&gt;" style="shape=partialRectangle;connectable=0;fillColor=none;top=0;left=0;bottom=0;right=0;align=left;spacingLeft=6;overflow=hidden;whiteSpace=wrap;html=1;" vertex="1" parent="4-tsahAi8-9u7SyYjMyO-24">
          <mxGeometry x="30" width="150" height="50" as="geometry">
            <mxRectangle width="150" height="50" as="alternateBounds" />
          </mxGeometry>
        </mxCell>
        <mxCell id="4-tsahAi8-9u7SyYjMyO-67" value="Room" style="shape=table;startSize=30;container=1;collapsible=1;childLayout=tableLayout;fixedRows=1;rowLines=0;fontStyle=1;align=center;resizeLast=1;html=1;" vertex="1" parent="1">
          <mxGeometry x="2050" y="350" width="180" height="90" as="geometry" />
        </mxCell>
        <mxCell id="4-tsahAi8-9u7SyYjMyO-68" value="" style="shape=tableRow;horizontal=0;startSize=0;swimlaneHead=0;swimlaneBody=0;fillColor=none;collapsible=0;dropTarget=0;points=[[0,0.5],[1,0.5]];portConstraint=eastwest;top=0;left=0;right=0;bottom=1;" vertex="1" parent="4-tsahAi8-9u7SyYjMyO-67">
          <mxGeometry y="30" width="180" height="30" as="geometry" />
        </mxCell>
        <mxCell id="4-tsahAi8-9u7SyYjMyO-69" value="PK" style="shape=partialRectangle;connectable=0;fillColor=none;top=0;left=0;bottom=0;right=0;fontStyle=1;overflow=hidden;whiteSpace=wrap;html=1;" vertex="1" parent="4-tsahAi8-9u7SyYjMyO-68">
          <mxGeometry width="30" height="30" as="geometry">
            <mxRectangle width="30" height="30" as="alternateBounds" />
          </mxGeometry>
        </mxCell>
        <mxCell id="4-tsahAi8-9u7SyYjMyO-70" value="Idroom" style="shape=partialRectangle;connectable=0;fillColor=none;top=0;left=0;bottom=0;right=0;align=left;spacingLeft=6;fontStyle=5;overflow=hidden;whiteSpace=wrap;html=1;" vertex="1" parent="4-tsahAi8-9u7SyYjMyO-68">
          <mxGeometry x="30" width="150" height="30" as="geometry">
            <mxRectangle width="150" height="30" as="alternateBounds" />
          </mxGeometry>
        </mxCell>
        <mxCell id="4-tsahAi8-9u7SyYjMyO-71" value="" style="shape=tableRow;horizontal=0;startSize=0;swimlaneHead=0;swimlaneBody=0;fillColor=none;collapsible=0;dropTarget=0;points=[[0,0.5],[1,0.5]];portConstraint=eastwest;top=0;left=0;right=0;bottom=0;" vertex="1" parent="4-tsahAi8-9u7SyYjMyO-67">
          <mxGeometry y="60" width="180" height="30" as="geometry" />
        </mxCell>
        <mxCell id="4-tsahAi8-9u7SyYjMyO-72" value="" style="shape=partialRectangle;connectable=0;fillColor=none;top=0;left=0;bottom=0;right=0;editable=1;overflow=hidden;whiteSpace=wrap;html=1;" vertex="1" parent="4-tsahAi8-9u7SyYjMyO-71">
          <mxGeometry width="30" height="30" as="geometry">
            <mxRectangle width="30" height="30" as="alternateBounds" />
          </mxGeometry>
        </mxCell>
        <mxCell id="4-tsahAi8-9u7SyYjMyO-73" value="Nama room" style="shape=partialRectangle;connectable=0;fillColor=none;top=0;left=0;bottom=0;right=0;align=left;spacingLeft=6;overflow=hidden;whiteSpace=wrap;html=1;" vertex="1" parent="4-tsahAi8-9u7SyYjMyO-71">
          <mxGeometry x="30" width="150" height="30" as="geometry">
            <mxRectangle width="150" height="30" as="alternateBounds" />
          </mxGeometry>
        </mxCell>
        <mxCell id="4-tsahAi8-9u7SyYjMyO-80" value="Penanaman" style="shape=table;startSize=40;container=1;collapsible=1;childLayout=tableLayout;fixedRows=1;rowLines=0;fontStyle=1;align=center;resizeLast=1;html=1;whiteSpace=wrap;" vertex="1" parent="1">
          <mxGeometry x="2170" y="590" width="180" height="180" as="geometry" />
        </mxCell>
        <mxCell id="4-tsahAi8-9u7SyYjMyO-81" value="" style="shape=tableRow;horizontal=0;startSize=0;swimlaneHead=0;swimlaneBody=0;fillColor=none;collapsible=0;dropTarget=0;points=[[0,0.5],[1,0.5]];portConstraint=eastwest;top=0;left=0;right=0;bottom=0;html=1;" vertex="1" parent="4-tsahAi8-9u7SyYjMyO-80">
          <mxGeometry y="40" width="180" height="30" as="geometry" />
        </mxCell>
        <mxCell id="4-tsahAi8-9u7SyYjMyO-82" value="PK,FK1" style="shape=partialRectangle;connectable=0;fillColor=none;top=0;left=0;bottom=0;right=0;fontStyle=1;overflow=hidden;html=1;whiteSpace=wrap;" vertex="1" parent="4-tsahAi8-9u7SyYjMyO-81">
          <mxGeometry width="90" height="30" as="geometry">
            <mxRectangle width="90" height="30" as="alternateBounds" />
          </mxGeometry>
        </mxCell>
        <mxCell id="4-tsahAi8-9u7SyYjMyO-83" value="Idpenanaman" style="shape=partialRectangle;connectable=0;fillColor=none;top=0;left=0;bottom=0;right=0;align=left;spacingLeft=6;fontStyle=5;overflow=hidden;html=1;whiteSpace=wrap;" vertex="1" parent="4-tsahAi8-9u7SyYjMyO-81">
          <mxGeometry x="90" width="90" height="30" as="geometry">
            <mxRectangle width="90" height="30" as="alternateBounds" />
          </mxGeometry>
        </mxCell>
        <mxCell id="4-tsahAi8-9u7SyYjMyO-84" value="" style="shape=tableRow;horizontal=0;startSize=0;swimlaneHead=0;swimlaneBody=0;fillColor=none;collapsible=0;dropTarget=0;points=[[0,0.5],[1,0.5]];portConstraint=eastwest;top=0;left=0;right=0;bottom=1;html=1;" vertex="1" parent="4-tsahAi8-9u7SyYjMyO-80">
          <mxGeometry y="70" width="180" height="30" as="geometry" />
        </mxCell>
        <mxCell id="4-tsahAi8-9u7SyYjMyO-85" value="PK,FK2" style="shape=partialRectangle;connectable=0;fillColor=none;top=0;left=0;bottom=0;right=0;fontStyle=1;overflow=hidden;html=1;whiteSpace=wrap;" vertex="1" parent="4-tsahAi8-9u7SyYjMyO-84">
          <mxGeometry width="90" height="30" as="geometry">
            <mxRectangle width="90" height="30" as="alternateBounds" />
          </mxGeometry>
        </mxCell>
        <mxCell id="4-tsahAi8-9u7SyYjMyO-86" value="Idroom" style="shape=partialRectangle;connectable=0;fillColor=none;top=0;left=0;bottom=0;right=0;align=left;spacingLeft=6;fontStyle=5;overflow=hidden;html=1;whiteSpace=wrap;" vertex="1" parent="4-tsahAi8-9u7SyYjMyO-84">
          <mxGeometry x="90" width="90" height="30" as="geometry">
            <mxRectangle width="90" height="30" as="alternateBounds" />
          </mxGeometry>
        </mxCell>
        <mxCell id="4-tsahAi8-9u7SyYjMyO-87" value="" style="shape=tableRow;horizontal=0;startSize=0;swimlaneHead=0;swimlaneBody=0;fillColor=none;collapsible=0;dropTarget=0;points=[[0,0.5],[1,0.5]];portConstraint=eastwest;top=0;left=0;right=0;bottom=0;html=1;" vertex="1" parent="4-tsahAi8-9u7SyYjMyO-80">
          <mxGeometry y="100" width="180" height="30" as="geometry" />
        </mxCell>
        <mxCell id="4-tsahAi8-9u7SyYjMyO-88" value="" style="shape=partialRectangle;connectable=0;fillColor=none;top=0;left=0;bottom=0;right=0;editable=1;overflow=hidden;html=1;whiteSpace=wrap;" vertex="1" parent="4-tsahAi8-9u7SyYjMyO-87">
          <mxGeometry width="90" height="30" as="geometry">
            <mxRectangle width="90" height="30" as="alternateBounds" />
          </mxGeometry>
        </mxCell>
        <mxCell id="4-tsahAi8-9u7SyYjMyO-89" value="Jenis tanaman&lt;div&gt;Luas tanah&lt;/div&gt;" style="shape=partialRectangle;connectable=0;fillColor=none;top=0;left=0;bottom=0;right=0;align=left;spacingLeft=6;overflow=hidden;html=1;whiteSpace=wrap;" vertex="1" parent="4-tsahAi8-9u7SyYjMyO-87">
          <mxGeometry x="90" width="90" height="30" as="geometry">
            <mxRectangle width="90" height="30" as="alternateBounds" />
          </mxGeometry>
        </mxCell>
        <mxCell id="4-tsahAi8-9u7SyYjMyO-90" value="" style="shape=tableRow;horizontal=0;startSize=0;swimlaneHead=0;swimlaneBody=0;fillColor=none;collapsible=0;dropTarget=0;points=[[0,0.5],[1,0.5]];portConstraint=eastwest;top=0;left=0;right=0;bottom=0;html=1;" vertex="1" parent="4-tsahAi8-9u7SyYjMyO-80">
          <mxGeometry y="130" width="180" height="40" as="geometry" />
        </mxCell>
        <mxCell id="4-tsahAi8-9u7SyYjMyO-91" value="" style="shape=partialRectangle;connectable=0;fillColor=none;top=0;left=0;bottom=0;right=0;editable=1;overflow=hidden;html=1;whiteSpace=wrap;" vertex="1" parent="4-tsahAi8-9u7SyYjMyO-90">
          <mxGeometry width="90" height="40" as="geometry">
            <mxRectangle width="90" height="40" as="alternateBounds" />
          </mxGeometry>
        </mxCell>
        <mxCell id="4-tsahAi8-9u7SyYjMyO-92" value="bibit&lt;div&gt;pupuk&lt;/div&gt;" style="shape=partialRectangle;connectable=0;fillColor=none;top=0;left=0;bottom=0;right=0;align=left;spacingLeft=6;overflow=hidden;html=1;whiteSpace=wrap;" vertex="1" parent="4-tsahAi8-9u7SyYjMyO-90">
          <mxGeometry x="90" width="90" height="40" as="geometry">
            <mxRectangle width="90" height="40" as="alternateBounds" />
          </mxGeometry>
        </mxCell>
        <mxCell id="4-tsahAi8-9u7SyYjMyO-93" value="Perawatan" style="shape=table;startSize=30;container=1;collapsible=1;childLayout=tableLayout;fixedRows=1;rowLines=0;fontStyle=1;align=center;resizeLast=1;html=1;whiteSpace=wrap;" vertex="1" parent="1">
          <mxGeometry x="2440" y="340" width="180" height="150" as="geometry" />
        </mxCell>
        <mxCell id="4-tsahAi8-9u7SyYjMyO-94" value="" style="shape=tableRow;horizontal=0;startSize=0;swimlaneHead=0;swimlaneBody=0;fillColor=none;collapsible=0;dropTarget=0;points=[[0,0.5],[1,0.5]];portConstraint=eastwest;top=0;left=0;right=0;bottom=0;html=1;" vertex="1" parent="4-tsahAi8-9u7SyYjMyO-93">
          <mxGeometry y="30" width="180" height="30" as="geometry" />
        </mxCell>
        <mxCell id="4-tsahAi8-9u7SyYjMyO-95" value="PK,FK1" style="shape=partialRectangle;connectable=0;fillColor=none;top=0;left=0;bottom=0;right=0;fontStyle=1;overflow=hidden;html=1;whiteSpace=wrap;" vertex="1" parent="4-tsahAi8-9u7SyYjMyO-94">
          <mxGeometry width="60" height="30" as="geometry">
            <mxRectangle width="60" height="30" as="alternateBounds" />
          </mxGeometry>
        </mxCell>
        <mxCell id="4-tsahAi8-9u7SyYjMyO-96" value="Idperawatan" style="shape=partialRectangle;connectable=0;fillColor=none;top=0;left=0;bottom=0;right=0;align=left;spacingLeft=6;fontStyle=5;overflow=hidden;html=1;whiteSpace=wrap;" vertex="1" parent="4-tsahAi8-9u7SyYjMyO-94">
          <mxGeometry x="60" width="120" height="30" as="geometry">
            <mxRectangle width="120" height="30" as="alternateBounds" />
          </mxGeometry>
        </mxCell>
        <mxCell id="4-tsahAi8-9u7SyYjMyO-97" value="" style="shape=tableRow;horizontal=0;startSize=0;swimlaneHead=0;swimlaneBody=0;fillColor=none;collapsible=0;dropTarget=0;points=[[0,0.5],[1,0.5]];portConstraint=eastwest;top=0;left=0;right=0;bottom=1;html=1;" vertex="1" parent="4-tsahAi8-9u7SyYjMyO-93">
          <mxGeometry y="60" width="180" height="30" as="geometry" />
        </mxCell>
        <mxCell id="4-tsahAi8-9u7SyYjMyO-98" value="PK,FK2" style="shape=partialRectangle;connectable=0;fillColor=none;top=0;left=0;bottom=0;right=0;fontStyle=1;overflow=hidden;html=1;whiteSpace=wrap;" vertex="1" parent="4-tsahAi8-9u7SyYjMyO-97">
          <mxGeometry width="60" height="30" as="geometry">
            <mxRectangle width="60" height="30" as="alternateBounds" />
          </mxGeometry>
        </mxCell>
        <mxCell id="4-tsahAi8-9u7SyYjMyO-99" value="Idpenanaman" style="shape=partialRectangle;connectable=0;fillColor=none;top=0;left=0;bottom=0;right=0;align=left;spacingLeft=6;fontStyle=5;overflow=hidden;html=1;whiteSpace=wrap;" vertex="1" parent="4-tsahAi8-9u7SyYjMyO-97">
          <mxGeometry x="60" width="120" height="30" as="geometry">
            <mxRectangle width="120" height="30" as="alternateBounds" />
          </mxGeometry>
        </mxCell>
        <mxCell id="4-tsahAi8-9u7SyYjMyO-100" value="" style="shape=tableRow;horizontal=0;startSize=0;swimlaneHead=0;swimlaneBody=0;fillColor=none;collapsible=0;dropTarget=0;points=[[0,0.5],[1,0.5]];portConstraint=eastwest;top=0;left=0;right=0;bottom=0;html=1;" vertex="1" parent="4-tsahAi8-9u7SyYjMyO-93">
          <mxGeometry y="90" width="180" height="30" as="geometry" />
        </mxCell>
        <mxCell id="4-tsahAi8-9u7SyYjMyO-101" value="" style="shape=partialRectangle;connectable=0;fillColor=none;top=0;left=0;bottom=0;right=0;editable=1;overflow=hidden;html=1;whiteSpace=wrap;" vertex="1" parent="4-tsahAi8-9u7SyYjMyO-100">
          <mxGeometry width="60" height="30" as="geometry">
            <mxRectangle width="60" height="30" as="alternateBounds" />
          </mxGeometry>
        </mxCell>
        <mxCell id="4-tsahAi8-9u7SyYjMyO-102" value="Penyiraman" style="shape=partialRectangle;connectable=0;fillColor=none;top=0;left=0;bottom=0;right=0;align=left;spacingLeft=6;overflow=hidden;html=1;whiteSpace=wrap;" vertex="1" parent="4-tsahAi8-9u7SyYjMyO-100">
          <mxGeometry x="60" width="120" height="30" as="geometry">
            <mxRectangle width="120" height="30" as="alternateBounds" />
          </mxGeometry>
        </mxCell>
        <mxCell id="4-tsahAi8-9u7SyYjMyO-103" value="" style="shape=tableRow;horizontal=0;startSize=0;swimlaneHead=0;swimlaneBody=0;fillColor=none;collapsible=0;dropTarget=0;points=[[0,0.5],[1,0.5]];portConstraint=eastwest;top=0;left=0;right=0;bottom=0;html=1;" vertex="1" parent="4-tsahAi8-9u7SyYjMyO-93">
          <mxGeometry y="120" width="180" height="30" as="geometry" />
        </mxCell>
        <mxCell id="4-tsahAi8-9u7SyYjMyO-104" value="" style="shape=partialRectangle;connectable=0;fillColor=none;top=0;left=0;bottom=0;right=0;editable=1;overflow=hidden;html=1;whiteSpace=wrap;" vertex="1" parent="4-tsahAi8-9u7SyYjMyO-103">
          <mxGeometry width="60" height="30" as="geometry">
            <mxRectangle width="60" height="30" as="alternateBounds" />
          </mxGeometry>
        </mxCell>
        <mxCell id="4-tsahAi8-9u7SyYjMyO-105" value="perawatan (sesuai tumbutan)" style="shape=partialRectangle;connectable=0;fillColor=none;top=0;left=0;bottom=0;right=0;align=left;spacingLeft=6;overflow=hidden;html=1;whiteSpace=wrap;" vertex="1" parent="4-tsahAi8-9u7SyYjMyO-103">
          <mxGeometry x="60" width="120" height="30" as="geometry">
            <mxRectangle width="120" height="30" as="alternateBounds" />
          </mxGeometry>
        </mxCell>
        <mxCell id="4-tsahAi8-9u7SyYjMyO-106" value="Penjagaan" style="shape=table;startSize=30;container=1;collapsible=1;childLayout=tableLayout;fixedRows=1;rowLines=0;fontStyle=1;align=center;resizeLast=1;html=1;whiteSpace=wrap;" vertex="1" parent="1">
          <mxGeometry x="1780" y="360" width="180" height="190" as="geometry" />
        </mxCell>
        <mxCell id="4-tsahAi8-9u7SyYjMyO-107" value="" style="shape=tableRow;horizontal=0;startSize=0;swimlaneHead=0;swimlaneBody=0;fillColor=none;collapsible=0;dropTarget=0;points=[[0,0.5],[1,0.5]];portConstraint=eastwest;top=0;left=0;right=0;bottom=0;html=1;" vertex="1" parent="4-tsahAi8-9u7SyYjMyO-106">
          <mxGeometry y="30" width="180" height="30" as="geometry" />
        </mxCell>
        <mxCell id="4-tsahAi8-9u7SyYjMyO-108" value="PK,FK1" style="shape=partialRectangle;connectable=0;fillColor=none;top=0;left=0;bottom=0;right=0;fontStyle=1;overflow=hidden;html=1;whiteSpace=wrap;" vertex="1" parent="4-tsahAi8-9u7SyYjMyO-107">
          <mxGeometry width="60" height="30" as="geometry">
            <mxRectangle width="60" height="30" as="alternateBounds" />
          </mxGeometry>
        </mxCell>
        <mxCell id="4-tsahAi8-9u7SyYjMyO-109" value="Idpenjagaan" style="shape=partialRectangle;connectable=0;fillColor=none;top=0;left=0;bottom=0;right=0;align=left;spacingLeft=6;fontStyle=5;overflow=hidden;html=1;whiteSpace=wrap;" vertex="1" parent="4-tsahAi8-9u7SyYjMyO-107">
          <mxGeometry x="60" width="120" height="30" as="geometry">
            <mxRectangle width="120" height="30" as="alternateBounds" />
          </mxGeometry>
        </mxCell>
        <mxCell id="4-tsahAi8-9u7SyYjMyO-110" value="" style="shape=tableRow;horizontal=0;startSize=0;swimlaneHead=0;swimlaneBody=0;fillColor=none;collapsible=0;dropTarget=0;points=[[0,0.5],[1,0.5]];portConstraint=eastwest;top=0;left=0;right=0;bottom=1;html=1;" vertex="1" parent="4-tsahAi8-9u7SyYjMyO-106">
          <mxGeometry y="60" width="180" height="30" as="geometry" />
        </mxCell>
        <mxCell id="4-tsahAi8-9u7SyYjMyO-111" value="PK,FK2" style="shape=partialRectangle;connectable=0;fillColor=none;top=0;left=0;bottom=0;right=0;fontStyle=1;overflow=hidden;html=1;whiteSpace=wrap;" vertex="1" parent="4-tsahAi8-9u7SyYjMyO-110">
          <mxGeometry width="60" height="30" as="geometry">
            <mxRectangle width="60" height="30" as="alternateBounds" />
          </mxGeometry>
        </mxCell>
        <mxCell id="4-tsahAi8-9u7SyYjMyO-112" value="Idroom" style="shape=partialRectangle;connectable=0;fillColor=none;top=0;left=0;bottom=0;right=0;align=left;spacingLeft=6;fontStyle=5;overflow=hidden;html=1;whiteSpace=wrap;" vertex="1" parent="4-tsahAi8-9u7SyYjMyO-110">
          <mxGeometry x="60" width="120" height="30" as="geometry">
            <mxRectangle width="120" height="30" as="alternateBounds" />
          </mxGeometry>
        </mxCell>
        <mxCell id="4-tsahAi8-9u7SyYjMyO-113" value="" style="shape=tableRow;horizontal=0;startSize=0;swimlaneHead=0;swimlaneBody=0;fillColor=none;collapsible=0;dropTarget=0;points=[[0,0.5],[1,0.5]];portConstraint=eastwest;top=0;left=0;right=0;bottom=0;html=1;" vertex="1" parent="4-tsahAi8-9u7SyYjMyO-106">
          <mxGeometry y="90" width="180" height="30" as="geometry" />
        </mxCell>
        <mxCell id="4-tsahAi8-9u7SyYjMyO-114" value="" style="shape=partialRectangle;connectable=0;fillColor=none;top=0;left=0;bottom=0;right=0;editable=1;overflow=hidden;html=1;whiteSpace=wrap;" vertex="1" parent="4-tsahAi8-9u7SyYjMyO-113">
          <mxGeometry width="60" height="30" as="geometry">
            <mxRectangle width="60" height="30" as="alternateBounds" />
          </mxGeometry>
        </mxCell>
        <mxCell id="4-tsahAi8-9u7SyYjMyO-115" value="alat&lt;div&gt;cara tanam&lt;/div&gt;" style="shape=partialRectangle;connectable=0;fillColor=none;top=0;left=0;bottom=0;right=0;align=left;spacingLeft=6;overflow=hidden;html=1;whiteSpace=wrap;" vertex="1" parent="4-tsahAi8-9u7SyYjMyO-113">
          <mxGeometry x="60" width="120" height="30" as="geometry">
            <mxRectangle width="120" height="30" as="alternateBounds" />
          </mxGeometry>
        </mxCell>
        <mxCell id="4-tsahAi8-9u7SyYjMyO-116" value="" style="shape=tableRow;horizontal=0;startSize=0;swimlaneHead=0;swimlaneBody=0;fillColor=none;collapsible=0;dropTarget=0;points=[[0,0.5],[1,0.5]];portConstraint=eastwest;top=0;left=0;right=0;bottom=0;html=1;" vertex="1" parent="4-tsahAi8-9u7SyYjMyO-106">
          <mxGeometry y="120" width="180" height="70" as="geometry" />
        </mxCell>
        <mxCell id="4-tsahAi8-9u7SyYjMyO-117" value="" style="shape=partialRectangle;connectable=0;fillColor=none;top=0;left=0;bottom=0;right=0;editable=1;overflow=hidden;html=1;whiteSpace=wrap;" vertex="1" parent="4-tsahAi8-9u7SyYjMyO-116">
          <mxGeometry width="60" height="70" as="geometry">
            <mxRectangle width="60" height="70" as="alternateBounds" />
          </mxGeometry>
        </mxCell>
        <mxCell id="4-tsahAi8-9u7SyYjMyO-118" value="&lt;br&gt;&lt;div&gt;jenis hama&lt;/div&gt;&lt;div&gt;penjagaan (sesuai hama &amp;amp; tanaman)&lt;/div&gt;" style="shape=partialRectangle;connectable=0;fillColor=none;top=0;left=0;bottom=0;right=0;align=left;spacingLeft=6;overflow=hidden;html=1;whiteSpace=wrap;" vertex="1" parent="4-tsahAi8-9u7SyYjMyO-116">
          <mxGeometry x="60" width="120" height="70" as="geometry">
            <mxRectangle width="120" height="70" as="alternateBounds" />
          </mxGeometry>
        </mxCell>
        <mxCell id="4-tsahAi8-9u7SyYjMyO-119" value="" style="edgeStyle=entityRelationEdgeStyle;fontSize=12;html=1;endArrow=ERmandOne;startArrow=ERmandOne;rounded=0;exitX=1;exitY=0.5;exitDx=0;exitDy=0;entryX=-0.001;entryY=0.159;entryDx=0;entryDy=0;entryPerimeter=0;" edge="1" parent="1" source="4-tsahAi8-9u7SyYjMyO-21" target="4-tsahAi8-9u7SyYjMyO-60">
          <mxGeometry width="100" height="100" relative="1" as="geometry">
            <mxPoint x="2110" y="310" as="sourcePoint" />
            <mxPoint x="2100" y="200" as="targetPoint" />
          </mxGeometry>
        </mxCell>
        <mxCell id="4-tsahAi8-9u7SyYjMyO-121" value="" style="edgeStyle=entityRelationEdgeStyle;fontSize=12;html=1;endArrow=ERoneToMany;rounded=0;exitX=1.011;exitY=0.803;exitDx=0;exitDy=0;exitPerimeter=0;" edge="1" parent="1" source="4-tsahAi8-9u7SyYjMyO-84">
          <mxGeometry width="100" height="100" relative="1" as="geometry">
            <mxPoint x="2340" y="510" as="sourcePoint" />
            <mxPoint x="2440" y="410" as="targetPoint" />
          </mxGeometry>
        </mxCell>
        <mxCell id="4-tsahAi8-9u7SyYjMyO-123" value="" style="edgeStyle=entityRelationEdgeStyle;fontSize=12;html=1;endArrow=ERoneToMany;rounded=0;entryX=-0.017;entryY=0.181;entryDx=0;entryDy=0;entryPerimeter=0;" edge="1" parent="1" source="4-tsahAi8-9u7SyYjMyO-57" target="4-tsahAi8-9u7SyYjMyO-94">
          <mxGeometry width="100" height="100" relative="1" as="geometry">
            <mxPoint x="2220" y="430" as="sourcePoint" />
            <mxPoint x="2320" y="330" as="targetPoint" />
          </mxGeometry>
        </mxCell>
        <mxCell id="4-tsahAi8-9u7SyYjMyO-124" value="" style="edgeStyle=entityRelationEdgeStyle;fontSize=12;html=1;endArrow=ERoneToMany;rounded=0;exitX=0.012;exitY=0.996;exitDx=0;exitDy=0;exitPerimeter=0;" edge="1" parent="1" source="4-tsahAi8-9u7SyYjMyO-63">
          <mxGeometry width="100" height="100" relative="1" as="geometry">
            <mxPoint x="2200" y="290" as="sourcePoint" />
            <mxPoint x="1780" y="400" as="targetPoint" />
          </mxGeometry>
        </mxCell>
        <mxCell id="4-tsahAi8-9u7SyYjMyO-125" value="" style="edgeStyle=entityRelationEdgeStyle;fontSize=12;html=1;endArrow=ERoneToMany;rounded=0;exitX=0.81;exitY=0.993;exitDx=0;exitDy=0;exitPerimeter=0;" edge="1" parent="1" source="4-tsahAi8-9u7SyYjMyO-63">
          <mxGeometry width="100" height="100" relative="1" as="geometry">
            <mxPoint x="2200" y="440" as="sourcePoint" />
            <mxPoint x="2170" y="660" as="targetPoint" />
          </mxGeometry>
        </mxCell>
        <mxCell id="4-tsahAi8-9u7SyYjMyO-126" value="" style="edgeStyle=entityRelationEdgeStyle;fontSize=12;html=1;endArrow=ERmandOne;startArrow=ERmandOne;rounded=0;exitX=1.002;exitY=0.155;exitDx=0;exitDy=0;exitPerimeter=0;entryX=0;entryY=0.25;entryDx=0;entryDy=0;" edge="1" parent="1" source="4-tsahAi8-9u7SyYjMyO-116" target="4-tsahAi8-9u7SyYjMyO-67">
          <mxGeometry width="100" height="100" relative="1" as="geometry">
            <mxPoint x="2080" y="420" as="sourcePoint" />
            <mxPoint x="2180" y="320" as="targetPoint" />
          </mxGeometry>
        </mxCell>
        <mxCell id="4-tsahAi8-9u7SyYjMyO-127" value="" style="edgeStyle=entityRelationEdgeStyle;fontSize=12;html=1;endArrow=ERmandOne;startArrow=ERmandOne;rounded=0;" edge="1" parent="1" target="4-tsahAi8-9u7SyYjMyO-63">
          <mxGeometry width="100" height="100" relative="1" as="geometry">
            <mxPoint x="2240" y="360" as="sourcePoint" />
            <mxPoint x="2100" y="230" as="targetPoint" />
          </mxGeometry>
        </mxCell>
        <mxCell id="4-tsahAi8-9u7SyYjMyO-128" value="" style="edgeStyle=entityRelationEdgeStyle;fontSize=12;html=1;endArrow=ERmandOne;startArrow=ERmandOne;rounded=0;entryX=0.01;entryY=0.733;entryDx=0;entryDy=0;entryPerimeter=0;exitX=1;exitY=0.5;exitDx=0;exitDy=0;" edge="1" parent="1" source="4-tsahAi8-9u7SyYjMyO-68" target="4-tsahAi8-9u7SyYjMyO-94">
          <mxGeometry width="100" height="100" relative="1" as="geometry">
            <mxPoint x="2140" y="480" as="sourcePoint" />
            <mxPoint x="2240" y="380" as="targetPoint" />
          </mxGeometry>
        </mxCell>
        <mxCell id="4-tsahAi8-9u7SyYjMyO-129" value="" style="edgeStyle=entityRelationEdgeStyle;fontSize=12;html=1;endArrow=ERmandOne;startArrow=ERmandOne;rounded=0;exitX=1;exitY=0.5;exitDx=0;exitDy=0;" edge="1" parent="1" source="4-tsahAi8-9u7SyYjMyO-87">
          <mxGeometry width="100" height="100" relative="1" as="geometry">
            <mxPoint x="2090" y="540" as="sourcePoint" />
            <mxPoint x="2050" y="430" as="targetPoint" />
          </mxGeometry>
        </mxCell>
        <mxCell id="4-tsahAi8-9u7SyYjMyO-130" value="Website simulasi bertani" style="text;html=1;align=center;verticalAlign=middle;resizable=0;points=[];autosize=1;strokeColor=none;fillColor=none;" vertex="1" parent="1">
          <mxGeometry x="2080" y="40" width="150" height="30" as="geometry" />
        </mxCell>
      </root>
    </mxGraphModel>
  </diagram>
</mxfile>
